# xmcd
#
# Track frame offsets:
#	150
#	26049
#	42167
#	66239
#	82412
#	106457
#	125463
#	170732
#	188983
#	206499
#
# Disc length: 3608 seconds
#
# Revision: 1
# Processed by: cddbd v1.5.2PL0 Copyright (c) Steve Scherf et al.
# Submitted via: audiograbber 1.83.01
#
DISCID=940e160a
DTITLE=Driftin - Struweliese
DYEAR=2010
DGENRE=Blues
TTITLE0=The Silencer
TTITLE1=Nothing at All
TTITLE2=Viso´s Ballad
TTITLE3=Jumping at Shadows
TTITLE4=She brings the Rain
TTITLE5=Cheap Sunglasses
TTITLE6=Let´s Get Horny
TTITLE7=Summertime #1
TTITLE8=Summertime #2
TTITLE9=Oooh Baby
EXTD=
EXTT0=
EXTT1=
EXTT2=
EXTT3=
EXTT4=
EXTT5=
EXTT6=
EXTT7=
EXTT8=
EXTT9=
PLAYORDER=
